<svg xmlns="http://www.w3.org/2000/svg" style="background: rgba(0, 0, 0, 0);" preserveAspectRatio="xMidYMid" viewBox="195.35 56.63 142.78 51.71"><defs><filter id="editing-hole" x="-100%" y="-100%" width="300%" height="300%"><feFlood flood-color="#000" result="black"/><feMorphology operator="dilate" radius="2" in="SourceGraphic" result="erode"/><feGaussianBlur in="erode" stdDeviation="4" result="blur"/><feOffset in="blur" dx="2" dy="2" result="offset"/><feComposite operator="atop" in="offset" in2="black" result="merge"/><feComposite operator="in" in="merge" in2="SourceGraphic" result="inner-shadow"/></filter></defs><g filter="url(#editing-hole)"><g transform="translate(195.41218811273575, 100.85499954223633)"><path d="M60.54-18.30L60.54-18.30L66.75-18.43L66.75-18.43Q69.06-18.43 69.06-18.11L69.06-18.11L69.06-18.11Q69.06-17.28 59.71-16.64L59.71-16.64L59.71-16.64Q53.76-4.99 53.76-0.77L53.76-0.77L53.76-0.77Q53.76 2.18 55.62 2.18L55.62 2.18L55.62 2.18Q56.32 2.18 57.38 1.31L57.38 1.31L57.38 1.31Q58.43 0.45 58.66 0.45L58.66 0.45L58.66 0.45Q58.88 0.45 58.88 0.77L58.88 0.77L58.88 0.77Q58.56 1.92 56.93 2.69L56.93 2.69L56.93 2.69Q55.30 3.46 54.18 3.46L54.18 3.46L54.18 3.46Q53.06 3.46 52.42 3.33L52.42 3.33L52.42 3.33Q50.88 2.75 50.88-0.38L50.88-0.38L50.88-0.38Q50.88-6.85 55.81-16.83L55.81-16.83L48.13-16.64L48.13-16.64Q39.55-8.26 30.91-1.92L30.91-1.92L30.91-1.92Q17.98 7.49 10.69 7.49L10.69 7.49L10.69 7.49Q10.24 7.49 9.79 7.42L9.79 7.42L9.79 7.42Q-0.06 6.59-0.06-2.69L-0.06-2.69L-0.06-2.69Q-0.06-8.19 3.39-14.34L3.39-14.34L3.39-14.34Q8-22.53 16-28.32L16-28.32L16-28.32Q24-34.11 30.34-34.11L30.34-34.11L30.34-34.11Q36.67-34.11 36.67-29.44L36.67-29.44L36.67-29.44Q36.67-26.30 34.75-22.46L34.75-22.46L34.75-22.46Q32.83-18.62 30.85-17.60L30.85-17.60L30.85-17.60Q30.66-17.54 30.43-17.54L30.43-17.54L30.43-17.54Q30.21-17.54 30.21-17.66L30.21-17.66L32.32-21.12L32.32-21.12Q34.50-24.51 34.50-27.07L34.50-27.07L34.50-27.07Q34.50-29.63 33.38-31.20L33.38-31.20L33.38-31.20Q32.26-32.77 29.82-32.77L29.82-32.77L29.82-32.77Q24.83-32.77 17.89-27.20L17.89-27.20L17.89-27.20Q10.94-21.63 7.33-13.50L7.33-13.50L7.33-13.50Q3.71-5.38 3.71-0.83L3.71-0.83L3.71-0.83Q3.71 6.02 10.69 6.02L10.69 6.02L10.69 6.02Q17.34 6.02 28.74-2.56L28.74-2.56L28.74-2.56Q33.79-6.34 45.18-16.83L45.18-16.83L45.18-16.83Q42.94-16.70 41.02-16.38L41.02-16.38L41.02-16.38Q36.93-15.62 37.18-16.64L37.18-16.64L37.18-16.64Q37.44-19.01 39.62-19.01L39.62-19.01L39.62-19.01Q43.84-18.50 46.72-18.50L46.72-18.50L46.72-18.50Q52.22-23.55 63.17-35.07L63.17-35.07L63.17-35.07Q70.53-42.82 72.13-42.82L72.13-42.82L72.13-42.82Q72.83-42.82 72.83-41.73L72.83-41.73L72.83-41.73Q72.83-40.64 72.26-38.34L72.26-38.34L72.26-38.34Q71.68-36.03 70.98-35.52L70.98-35.52L70.98-35.52Q69.50-34.50 68.22-32.74L68.22-32.74L68.22-32.74Q66.94-30.98 64.58-26.14L64.58-26.14L64.58-26.14Q62.21-21.31 60.54-18.30ZM65.66-33.92L65.66-33.92L49.28-18.56L53.06-18.56L53.06-18.56Q54.40-18.50 56.38-18.50L56.38-18.50L56.38-18.50Q58.24-22.14 65.66-33.92ZM83.84-18.30L83.84-18.30L83.84-18.30Q84.74-18.30 84.74-16.19L84.74-16.19L84.74-16.19Q84.74-12.99 81.57-10.21L81.57-10.21L81.57-10.21Q78.40-7.42 74.30-7.42L74.30-7.42L74.30-7.42Q71.68-7.42 69.25-8.70L69.25-8.70L69.25-8.70Q64.06-11.52 64.06-18.50L64.06-18.50L64.06-18.50Q64.06-23.42 66.75-28.16L66.75-28.16L66.75-28.16Q70.46-34.62 77.41-38.40L77.41-38.40L77.41-38.40Q84.35-42.18 90.94-42.18L90.94-42.18L90.94-42.18Q95.74-42.18 98.82-40.06L98.82-40.06L98.82-40.06Q102.27-37.70 102.27-33.02L102.27-33.02L102.27-33.02Q102.27-27.07 96.51-14.37L96.51-14.37L96.51-14.37Q90.75-1.66 90.75 0L90.75 0L90.75 0Q90.75 0.51 91.07 0.32L91.07 0.32L91.07 0.32Q92.74-0.77 106.34-17.06L106.34-17.06L106.34-17.06Q119.94-33.34 125.25-37.18L125.25-37.18L125.25-37.18Q129.98-40.70 133.15-42.46L133.15-42.46L133.15-42.46Q136.32-44.22 139.65-44.22L139.65-44.22L139.65-44.22Q140.54-44.22 140.99-44.16L140.99-44.16L140.99-44.16Q142.72-44.03 142.72-42.37L142.72-42.37L142.72-42.37Q142.72-41.54 142.14-41.54L142.14-41.54L142.14-41.54Q142.08-41.54 141.25-41.82L141.25-41.82L141.25-41.82Q140.42-42.11 139.84-42.11L139.84-42.11L139.84-42.11Q130.88-42.11 115.71-25.92L115.71-25.92L115.71-25.92Q110.02-19.84 101.86-9.54L101.86-9.54L101.86-9.54Q93.70 0.77 92.22 1.60L92.22 1.60L92.22 1.60Q87.04 4.54 86.40 4.54L86.40 4.54L86.40 4.54Q86.21 4.54 86.21 3.90L86.21 3.90L86.21 3.90Q86.21 1.79 89.79-6.85L89.79-6.85L89.79-6.85Q91.26-10.18 94.08-16.83L94.08-16.83L97.02-25.47L97.02-25.47Q98.56-29.82 98.56-31.81L98.56-31.81L98.56-31.81Q98.56-36.22 96-38.53L96-38.53L96-38.53Q93.44-40.83 88.64-40.83L88.64-40.83L88.64-40.83Q83.84-40.83 78.34-37.44L78.34-37.44L78.34-37.44Q72.38-33.60 69.44-27.97L69.44-27.97L69.44-27.97Q66.50-22.34 66.50-18.43L66.50-18.43L66.50-18.43Q66.50-14.53 68.10-12.29L68.10-12.29L68.10-12.29Q70.72-8.64 75.07-8.64L75.07-8.64L75.07-8.64Q78.40-8.64 80.96-10.85L80.96-10.85L80.96-10.85Q83.52-13.06 83.52-16.45L83.52-16.45L83.52-16.45Q83.52-17.15 83.36-17.73L83.36-17.73L83.36-17.73Q83.20-18.30 83.84-18.30Z" fill="#0055ff"/></g></g><style>text {
  font-size: 64px;
  font-family: Arial Black;
  dominant-baseline: central;
  text-anchor: middle;
}</style></svg>